<svg width="154" height="31" viewBox="0 0 154 31" fill="none" xmlns="http://www.w3.org/2000/svg">
<path d="M0 26.8266V0H4.80123L15.4786 18.9319H12.9347L23.4329 0H28.1983L28.2699 26.8266H22.8238L22.7879 8.92942H23.7912L15.4069 23.9906H12.7913L4.22795 8.92942H5.44617V26.8266H0Z" fill="#F2F2F2"/>
<path d="M59.9199 28.0243V1.19775H64.7212L79.519 20.5129H77.19V1.19775H82.9228V28.0243H78.1574L63.3238 8.7092H65.6527V28.0243H59.9199Z" fill="#F2F2F2"/>
<path d="M94.3091 28.0243V6.25648H86.2832V1.19775H108.14V6.25648H100.114V28.0243H94.3091Z" fill="#F2F2F2"/>
<path d="M116.837 12.005H128.911V16.8338H116.837V12.005ZM117.267 23.0423H130.918V28.0243H111.498V1.19775H130.452V6.17983H117.267V23.0423Z" fill="#F2F2F2"/>
<path d="M139.616 12.005H151.691V16.8338H139.616V12.005ZM140.046 23.0423H153.697V28.0243H134.277V1.19775H153.231V6.17983H140.046V23.0423Z" fill="#F2F2F2"/>
<path d="M43.636 0.947956L42.5879 1.05182V6.53068C42.5879 10.867 42.661 11.9316 42.9047 11.7499C43.051 11.6201 45.3177 9.77646 47.9013 7.6732C50.4606 5.56994 52.5811 3.7523 52.5811 3.62247C52.5811 3.33684 49.4369 1.62308 48.3157 1.33745C47.0726 0.999888 44.9521 0.844092 43.636 0.947956Z" fill="#0BB3D8"/>
<path d="M40.3216 1.90895C37.8842 2.97357 35.6906 4.97296 34.4719 7.20605L34.0332 8.011L38.0061 11.3866L41.979 14.7622L42.1252 11.854C42.4177 6.3232 42.369 1.28576 42.0521 1.28576C41.8815 1.28576 41.1015 1.57139 40.3216 1.90895Z" fill="#0BB3D8"/>
<path d="M49.0469 7.0762C47.0239 8.81594 45.3421 10.3479 45.3177 10.5037C45.2446 10.7115 56.2371 13.7235 57.1633 13.7495C57.8701 13.7495 56.8464 9.3093 55.7009 7.28393C55.1159 6.27125 53.0929 3.88236 52.8492 3.90833C52.7761 3.90833 51.0455 5.33647 49.0469 7.0762Z" fill="#0BB3D8"/>
<path d="M47.5362 11.9577C47.6093 12.1655 48.5111 14.2428 49.5348 16.6057C50.5585 18.9686 51.7284 21.6431 52.1184 22.5519L52.8253 24.2397L53.7027 23.3309C55.5795 21.4094 56.9931 18.3454 57.3344 15.5411L57.505 14.1129L52.8496 13.0224C50.2904 12.4251 48.0237 11.8539 47.8043 11.75C47.4874 11.6202 47.4143 11.6981 47.5362 11.9577Z" fill="#0BB3D8"/>
<path d="M47.9682 14.7613C47.8623 14.9523 46.91 17.0039 45.8255 19.3358C44.7409 21.6677 43.5205 24.3165 43.101 25.2103L42.311 26.8557L43.5258 27.0132C46.1079 27.3641 49.2343 26.614 51.498 25.1372L52.6488 24.3825L50.5244 19.8367C49.3549 17.3391 48.35 15.1005 48.2882 14.8533C48.1843 14.509 48.0815 14.4973 47.9682 14.7613Z" fill="#0BB3D8"/>
<path d="M46.3577 16.847C46.1511 16.8749 44.0457 17.3301 41.6512 17.8456C39.2568 18.3612 36.5441 18.9564 35.624 19.1508L33.9193 19.4938L34.5468 20.6131C35.8684 23.0022 38.3404 25.1749 40.8228 26.1761L42.0877 26.6827L44.1586 22.1089C45.2949 19.594 46.34 17.3763 46.4855 17.1729C46.6772 16.8744 46.623 16.7807 46.3577 16.847Z" fill="#0BB3D8"/>
<path d="M42.8022 16.588C42.6669 16.4431 41.17 15.0626 39.4692 13.4914C37.7683 11.9203 35.8337 10.1465 35.1827 9.54068L33.9883 8.40858L33.5748 9.52637C32.6823 11.8984 32.5855 15.043 33.297 17.5363L33.6621 18.8048L37.9604 17.8402C40.3225 17.308 42.4297 16.8722 42.651 16.8708C42.9633 16.8519 42.997 16.7569 42.8022 16.588Z" fill="#0BB3D8"/>
</svg>
